<svg width="36" height="36" viewBox="0 0 36 36" fill="none" xmlns="http://www.w3.org/2000/svg">
<mask id="mask0_10_5458" style="mask-type:alpha" maskUnits="userSpaceOnUse" x="11" y="1" width="24" height="22">
<path fill-rule="evenodd" clip-rule="evenodd" d="M11.2656 1.49146H34.1092V22.9745H11.2656V1.49146Z" fill="white"/>
</mask>
<g mask="url(#mask0_10_5458)">
<path fill-rule="evenodd" clip-rule="evenodd" d="M25.1316 16.1931C24.8096 16.1931 24.4873 16.2008 24.1655 16.1911C23.7814 16.1796 23.4734 16.2783 23.3554 16.6898C23.2413 17.0875 23.4761 17.3178 23.7616 17.5205C24.286 17.8929 24.8146 18.2597 25.3358 18.6364C25.7489 18.935 25.809 19.1671 25.6064 19.6374C25.2942 20.3622 24.9889 21.0902 24.6582 21.8065C24.4955 22.1588 24.4613 22.4778 24.7579 22.7607C25.0696 23.0578 25.3993 23.0033 25.7496 22.8006C26.5953 22.3111 27.4552 21.846 28.3004 21.3555C28.6012 21.1809 28.8581 21.1867 29.1595 21.3627C30.0147 21.8624 30.8862 22.3341 31.7468 22.8248C32.0691 23.0085 32.3702 23.0536 32.6689 22.7849C32.968 22.5158 32.9528 22.2083 32.8039 21.8718C32.4792 21.1383 32.1573 20.4036 31.8408 19.6667C31.6387 19.196 31.7143 18.9228 32.1268 18.6267C32.6601 18.2437 33.1947 17.8624 33.7365 17.4916C34.0525 17.2753 34.1814 16.9937 34.0696 16.6289C33.9612 16.2751 33.6737 16.1913 33.3393 16.1928C32.6818 16.1958 32.0239 16.1793 31.3669 16.1976C30.9114 16.2103 30.651 16.0195 30.497 15.5912C30.1626 14.6611 29.7898 13.7449 29.4489 12.817C29.3132 12.4477 29.1351 12.1681 28.6895 12.178C28.2577 12.1876 28.1056 12.4867 27.9785 12.8293C27.6343 13.7562 27.273 14.6768 26.9396 15.6075C26.7918 16.0202 26.5345 16.2135 26.0976 16.1953C25.7761 16.1819 25.4537 16.1926 25.1316 16.1931M13.6171 6.49788V6.49925C13.1341 6.49925 12.6506 6.48602 12.1681 6.50288C11.6672 6.52047 11.4316 6.71059 11.3037 7.13568C11.1775 7.55464 11.3799 7.82827 11.6963 8.05591C12.3925 8.55677 13.0913 9.05417 13.7839 9.56003C14.2815 9.92348 14.3347 10.1264 14.1012 10.686C13.6998 11.6481 13.2939 12.6082 12.8944 13.5711C12.6921 14.0589 12.7567 14.4209 13.082 14.7006C13.4176 14.9892 13.7558 15.0009 14.2313 14.733C15.3395 14.1088 16.4494 13.4877 17.5517 12.8535C17.8621 12.675 18.1296 12.6675 18.4483 12.8533C19.5238 13.4803 20.6183 14.0748 21.6963 14.6977C22.1128 14.9383 22.5175 15.0451 22.9264 14.7247C23.2857 14.4431 23.3252 14.0558 23.0849 13.4798C22.6939 12.5424 22.3006 11.6059 21.9095 10.6683C21.6732 10.1015 21.7255 9.90839 22.2302 9.54793C22.9498 9.03399 23.682 8.53716 24.3936 8.01241C24.8881 7.64776 24.9003 6.95194 24.413 6.66386C24.2184 6.5488 23.9557 6.5103 23.7226 6.50546C22.8643 6.48755 22.0048 6.48117 21.1467 6.50522C20.6998 6.51781 20.4628 6.33746 20.3115 5.92536C19.8559 4.68373 19.3744 3.45162 18.9008 2.21669C18.6876 1.66071 18.481 1.49343 18.0206 1.49141C17.537 1.48932 17.3275 1.65869 17.1101 2.23113C16.631 3.49261 16.1474 4.75232 15.6778 6.01735C15.5531 6.35311 15.3444 6.5099 14.9857 6.5007C14.5298 6.489 14.0734 6.49788 13.6171 6.49788" fill="#FEFEFE"/>
</g>
<path fill-rule="evenodd" clip-rule="evenodd" d="M1.8916 16.6253C2.09325 16.323 2.36519 16.2053 2.73662 16.2203C3.37927 16.2462 4.02417 16.2119 4.66721 16.233C5.07762 16.2464 5.31349 16.0778 5.45406 15.6999C5.81274 14.736 6.19418 13.7807 6.55447 12.8174C6.68157 12.4777 6.86062 12.2168 7.25635 12.206C7.67757 12.1946 7.86655 12.4727 7.99711 12.8225C8.34724 13.7606 8.71076 14.6938 9.05073 15.6355C9.20259 16.0561 9.44814 16.2584 9.91729 16.2353C10.5595 16.2037 11.2045 16.2384 11.8479 16.2234C12.221 16.2146 12.4808 16.3616 12.5826 16.712C12.678 17.0402 12.5606 17.3034 12.2633 17.5026C11.7294 17.8603 11.2076 18.2362 10.6857 18.6114C10.2335 18.9364 10.1781 19.1533 10.4021 19.6717C10.7202 20.4077 11.0348 21.1454 11.3642 21.8763C11.5141 22.2087 11.4941 22.5078 11.2325 22.7589C10.9573 23.0231 10.6505 23.0277 10.3138 22.8387C9.4508 22.354 8.57463 21.8926 7.7121 21.407C7.39861 21.2305 7.12288 21.2312 6.81019 21.4128C5.96573 21.903 5.10578 22.3664 4.26012 22.8545C3.92201 23.0495 3.60747 23.0925 3.30809 22.8107C3.02115 22.5406 3.04277 22.2244 3.19246 21.8892C3.51411 21.169 3.82946 20.4459 4.14384 19.7224C4.35663 19.2328 4.28295 18.9673 3.84479 18.653C3.37693 18.3173 2.90075 17.9932 2.43604 17.6533C2.24407 17.5128 2.07244 17.3444 1.8916 17.1888C1.8916 17.001 1.8916 16.8131 1.8916 16.6253" fill="#1A171B"/>
<path fill-rule="evenodd" clip-rule="evenodd" d="M17.5932 33.6915C16.8371 33.3054 16.6166 32.6823 16.6212 31.8512C16.6478 26.9709 16.6346 22.0903 16.6337 17.2098C16.6336 16.8028 16.6662 16.4152 16.95 16.0803C17.3286 15.6337 17.802 15.4722 18.3499 15.6233C18.915 15.7792 19.2464 16.185 19.3379 16.7672C19.3647 16.9379 19.3566 17.1148 19.3567 17.289C19.3575 22.1292 19.3437 26.9696 19.3703 31.8098C19.3749 32.6493 19.1756 33.2973 18.3984 33.6915H17.5932Z" fill="#1A171B"/>
<mask id="mask1_10_5458" style="mask-type:alpha" maskUnits="userSpaceOnUse" x="22" y="23" width="7" height="11">
<path fill-rule="evenodd" clip-rule="evenodd" d="M22.0273 23.6165H28.7851V33.6914H22.0273V23.6165Z" fill="white"/>
</mask>
<g mask="url(#mask1_10_5458)">
<path fill-rule="evenodd" clip-rule="evenodd" d="M22.907 33.6914C22.0897 33.2507 21.9 32.5816 22.1016 31.7035C22.4631 30.1295 22.7069 28.5262 23.4612 27.0662C24.1945 25.6468 25.3304 24.628 26.6787 23.834C27.3956 23.4118 28.1791 23.6277 28.5759 24.2776C28.9745 24.9304 28.803 25.7209 28.064 26.1409C26.2533 27.1699 25.436 28.8092 25.0803 30.7626C24.975 31.3406 24.844 31.9141 24.7473 32.4934C24.6499 33.077 24.2616 33.4124 23.7927 33.6914H22.907Z" fill="#1A171B"/>
</g>
<path fill-rule="evenodd" clip-rule="evenodd" d="M12.2786 33.6914C11.6301 33.4324 11.3348 32.9339 11.2238 32.2595C11.098 31.4962 10.9088 30.7431 10.7436 29.9864C10.3851 28.3449 9.5112 27.0716 8.04936 26.2173C7.55503 25.9284 7.22362 25.5247 7.25276 24.9224C7.304 23.8636 8.41829 23.29 9.33892 23.8384C11.3142 25.0148 12.6705 26.671 13.2413 28.9208C13.5007 29.9431 13.7293 30.9733 13.9593 32.0027C14.1381 32.8025 13.7535 33.3242 13.0837 33.6914H12.2786Z" fill="#1A171B"/>
<mask id="mask2_10_5458" style="mask-type:alpha" maskUnits="userSpaceOnUse" x="11" y="1" width="14" height="14">
<path fill-rule="evenodd" clip-rule="evenodd" d="M11.2656 1.49146H24.7715V14.9258H11.2656V1.49146Z" fill="white"/>
</mask>
<g mask="url(#mask2_10_5458)">
<path fill-rule="evenodd" clip-rule="evenodd" d="M13.6171 6.49794C14.0734 6.49794 14.5298 6.48906 14.9857 6.50076C15.3444 6.50996 15.5531 6.35317 15.6778 6.01741C16.1474 4.75238 16.631 3.49267 17.1101 2.23119C17.3275 1.65875 17.537 1.48938 18.0206 1.49147C18.481 1.49349 18.6876 1.66077 18.9008 2.21675C19.3744 3.45168 19.8559 4.68379 20.3115 5.92542C20.4628 6.33752 20.6998 6.51787 21.1467 6.50528C22.0048 6.48124 22.8643 6.48761 23.7226 6.50552C23.9557 6.51037 24.2184 6.54886 24.413 6.66393C24.9003 6.952 24.8881 7.64782 24.3936 8.01247C23.682 8.53722 22.9498 9.03405 22.2302 9.54799C21.7255 9.90845 21.6732 10.1015 21.9095 10.6683C22.3006 11.6059 22.6939 12.5424 23.0849 13.4799C23.3252 14.0559 23.2857 14.4432 22.9264 14.7248C22.5175 15.0452 22.1128 14.9383 21.6963 14.6978C20.6183 14.0749 19.5238 13.4803 18.4483 12.8534C18.1296 12.6675 17.8621 12.6751 17.5517 12.8536C16.4494 13.4878 15.3395 14.1089 14.2313 14.7331C13.7558 15.0009 13.4176 14.9892 13.082 14.7007C12.7567 14.421 12.6921 14.059 12.8944 13.5711C13.2939 12.6083 13.6998 11.6481 14.1012 10.6861C14.3347 10.1265 14.2815 9.92354 13.7839 9.56009C13.0913 9.05423 12.3925 8.55683 11.6963 8.05597C11.3799 7.82833 11.1775 7.5547 11.3037 7.13574C11.4316 6.71065 11.6672 6.52053 12.1681 6.50294C12.6506 6.48608 13.1341 6.49931 13.6171 6.49931V6.49794Z" fill="#1A171B"/>
</g>
<mask id="mask3_10_5458" style="mask-type:alpha" maskUnits="userSpaceOnUse" x="23" y="12" width="12" height="11">
<path fill-rule="evenodd" clip-rule="evenodd" d="M23.3262 12.1778H34.1095V22.9746H23.3262V12.1778Z" fill="white"/>
</mask>
<g mask="url(#mask3_10_5458)">
<path fill-rule="evenodd" clip-rule="evenodd" d="M25.1318 16.193C25.4539 16.1927 25.7763 16.182 26.0978 16.1954C26.5347 16.2136 26.792 16.0202 26.9399 15.6076C27.2732 14.6769 27.6346 13.7563 27.9787 12.8293C28.1059 12.4868 28.2579 12.1877 28.6898 12.1781C29.1354 12.1681 29.3135 12.4478 29.4491 12.8171C29.79 13.7449 30.1628 14.6612 30.4972 15.5913C30.6512 16.0195 30.9117 16.2103 31.3671 16.1976C32.0241 16.1794 32.682 16.1959 33.3395 16.1929C33.6739 16.1913 33.9615 16.2751 34.0699 16.6289C34.1816 16.9938 34.0527 17.2754 33.7368 17.4916C33.195 17.8625 32.6603 18.2437 32.127 18.6268C31.7145 18.9229 31.639 19.196 31.841 19.6666C32.1576 20.4037 32.4795 21.1384 32.8042 21.8718C32.9531 22.2082 32.9682 22.5159 32.6691 22.785C32.3705 23.0537 32.0693 23.0086 31.747 22.8248C30.8864 22.3342 30.0149 21.8625 29.1597 21.3628C28.8583 21.1868 28.6014 21.1809 28.3006 21.3556C27.4554 21.8461 26.5955 22.3111 25.7498 22.8006C25.3995 23.0034 25.0698 23.0579 24.7582 22.7607C24.4615 22.4778 24.4957 22.1589 24.6584 21.8066C24.9891 21.0902 25.2944 20.3623 25.6066 19.6375C25.8093 19.1671 25.7491 18.935 25.3361 18.6365C24.8148 18.2598 24.2863 17.893 23.7618 17.5206C23.4763 17.3179 23.2415 17.0876 23.3556 16.6899C23.4737 16.2782 23.7816 16.1796 24.1658 16.1912C24.4875 16.2009 24.8098 16.1932 25.1318 16.193" fill="#1A171B"/>
</g>
</svg>
