<svg width="36" height="36" viewBox="0 0 36 36" fill="none" xmlns="http://www.w3.org/2000/svg">
<path d="M25.8449 19.5589L19.183 21.7796C18.6136 21.9748 17.9954 21.9748 17.426 21.7796L10.7641 19.5589C10.3926 19.4275 9.97999 19.4917 9.66598 19.7297C9.34641 19.9523 9.15522 20.3164 9.15353 20.7058V23.3657C9.09503 24.6067 9.85946 25.7385 11.0325 26.1476L16.8403 28.1974C17.7893 28.5228 18.8197 28.5228 19.7686 28.1974L25.5765 26.1476C26.7058 25.7522 27.4602 24.6843 27.4555 23.4877V20.7058C27.4526 20.3144 27.262 19.9481 26.9431 19.721C26.6242 19.4939 26.2158 19.4336 25.8449 19.5589V19.5589Z" fill="#909090"/>
<path d="M33.8005 12.8238C33.7895 12.3061 33.4591 11.8494 32.9709 11.6769L18.6954 6.79637C18.4402 6.72315 18.1696 6.72315 17.9145 6.79637L3.63897 11.6769C2.7813 11.9684 2.20309 12.772 2.19922 13.6779V20.7546C2.19922 21.7654 3.01862 22.5848 4.02941 22.5848C5.0402 22.5848 5.8596 21.7654 5.8596 20.7546V15.5813C5.86279 15.3832 5.95183 15.1962 6.10363 15.0688C6.28379 14.9969 6.48472 14.9969 6.66489 15.0688L17.9145 18.8268C18.1707 18.8919 18.4391 18.8919 18.6954 18.8268L32.9709 13.9463C33.451 13.7771 33.7796 13.3325 33.8005 12.8238Z" fill="#909090"/>
</svg>
