<svg width="21" height="21" viewBox="0 0 21 21" fill="none" xmlns="http://www.w3.org/2000/svg">
<path fill-rule="evenodd" clip-rule="evenodd" d="M14.1705 5.02253H15.7678C16.4094 5.02253 16.9295 5.54263 16.9295 6.1842V16.0584C16.9295 16.6999 16.4094 17.22 15.7678 17.22H4.73198C4.09041 17.22 3.57031 16.6999 3.57031 16.0584V6.1842C3.57031 5.54263 4.09041 5.02253 4.73198 5.02253H5.60323C5.76362 5.02253 5.89365 5.15255 5.89365 5.31295V6.61982C5.89365 6.86041 6.08868 7.05545 6.32927 7.05545C6.56986 7.05545 6.7649 6.86041 6.7649 6.61982V3.86086C6.7649 3.54008 7.02494 3.28003 7.34573 3.28003C7.66651 3.28003 7.92656 3.54008 7.92656 3.86086V4.87732C7.92656 4.95752 7.99157 5.02253 8.07177 5.02253H11.702C11.8624 5.02253 11.9924 5.15255 11.9924 5.31295V6.61982C11.9924 6.86041 12.1874 7.05545 12.428 7.05545C12.6686 7.05545 12.8636 6.86041 12.8636 6.61982V3.86086C12.8636 3.54008 13.1237 3.28003 13.4445 3.28003C13.7653 3.28003 14.0253 3.54008 14.0253 3.86086V4.87732C14.0253 4.95752 14.0903 5.02253 14.1705 5.02253ZM5.0224 16.0584H15.4774C15.6378 16.0584 15.7678 15.9283 15.7678 15.7679V8.79795C15.7678 8.63755 15.6378 8.50753 15.4774 8.50753H5.0224C4.862 8.50753 4.73198 8.63755 4.73198 8.79795V15.7679C4.73198 15.9283 4.862 16.0584 5.0224 16.0584Z" fill="black"/>
</svg>
