<svg width="28" height="27" viewBox="0 0 28 27" fill="none" xmlns="http://www.w3.org/2000/svg">
<path d="M6.8158 10.4261L13.2332 13.22C13.7426 13.4426 14.3215 13.4426 14.8309 13.22L21.255 10.4261C21.6221 10.2619 21.8573 9.8954 21.8541 9.49264C21.8552 9.09344 21.6161 8.73289 21.2483 8.57915L14.8309 5.792C14.3215 5.56933 13.7426 5.56933 13.2332 5.792L6.8158 8.59248C6.45244 8.74434 6.21423 9.0983 6.21001 9.49264C6.20618 9.8975 6.44485 10.2653 6.8158 10.4261Z" fill="black"/>
<path d="M21.2484 12.5932L20.4229 12.2331C20.2531 12.1589 20.0601 12.1589 19.8903 12.2331L14.0321 14.7802L8.17388 12.2331C8.0041 12.1589 7.81111 12.1589 7.64132 12.2331L6.81584 12.5932C6.44654 12.7476 6.20605 13.1092 6.20605 13.51C6.20605 13.9108 6.44654 14.2724 6.81584 14.4268L13.2333 17.2206C13.7426 17.4433 14.3216 17.4433 14.831 17.2206L21.2484 14.4268C21.6193 14.266 21.858 13.8982 21.8542 13.4933C21.8499 13.099 21.6117 12.745 21.2484 12.5932V12.5932Z" fill="black"/>
<path d="M21.2483 16.5605L20.4228 16.2005C20.2531 16.1262 20.0601 16.1262 19.8903 16.2005L14.0321 18.7542L8.17384 16.2005C8.00405 16.1262 7.81106 16.1262 7.64128 16.2005L6.8158 16.5605C6.44485 16.7214 6.20618 17.0892 6.21001 17.494C6.20888 17.8932 6.44799 18.2538 6.8158 18.4075L13.2332 21.208C13.7426 21.4307 14.3215 21.4307 14.8309 21.208L21.2483 18.4075C21.6161 18.2538 21.8552 17.8932 21.8541 17.494C21.8579 17.0892 21.6193 16.7214 21.2483 16.5605V16.5605Z" fill="black"/>
</svg>
