<svg width="43" height="26" viewBox="0 0 43 26" fill="none" xmlns="http://www.w3.org/2000/svg">
<path fill-rule="evenodd" clip-rule="evenodd" d="M2.01512 19.0556C2.19381 19.1697 3.57995 18.8311 3.57995 18.8311C3.57995 18.8311 3.67746 19.3736 3.20932 19.8935C2.7413 20.4135 2.14619 21.0268 2.14619 21.0268C2.14619 21.0268 1.96282 21.2888 1.5697 21.2514C1.17658 21.214 1.21403 21.1204 1.02677 21.1765C0.839632 21.2327 0.877083 21.4384 0.877083 21.4384C0.877083 21.4384 1.38644 22.2764 1.53225 22.3325C1.67817 22.3886 2.15008 22.3511 2.44569 22.5195C2.7413 22.688 2.96601 22.9833 3.15326 22.9646C3.3404 22.9459 4.40719 22.2262 4.71798 21.8687C4.96359 21.5864 5.14022 21.1921 5.10722 21.0599C5.09615 21.0158 5.42716 21.6925 5.32451 21.9396C5.22346 22.1829 4.23512 22.8336 4.16033 22.9272C4.08543 23.0208 3.86072 23.1705 3.93562 23.3763C4.01053 23.582 4.02925 23.6194 4.16033 23.582C4.29129 23.5446 4.92785 22.9646 5.16728 22.9833C5.40683 23.0021 6.22379 23.0318 6.63849 22.9085C6.90088 22.8305 6.88192 22.6692 7.70174 22.8375C8.56265 23.0144 9.04187 22.8564 9.26646 22.6879C9.49117 22.5195 10.1743 22.0859 10.3484 21.8126C10.6105 21.4011 10.6105 19.6129 10.6105 19.6129C10.6105 19.6129 11.3368 20.7314 11.3368 20.8624C11.3368 20.9934 11.2057 21.2701 11.2057 21.2701C11.2057 21.2701 9.43499 23.7651 9.22901 23.9522C9.02303 24.1392 8.74625 24.4386 8.61518 24.4573C8.4841 24.4759 7.77652 24.4386 7.60811 24.5134C7.43958 24.5883 7.20014 24.9211 7.05034 25.0334C6.90065 25.1456 6.54486 25.2765 6.46996 25.3887C6.39506 25.5011 6.32027 25.6655 6.35772 25.8152C6.39506 25.9648 6.34631 25.9826 6.53356 25.9826C6.7207 25.9826 8.78119 26.0218 9.04107 25.9826C9.23061 25.9539 9.39754 25.5759 9.54734 25.3327C9.69703 25.0894 10.1237 24.5883 10.2548 24.5322C10.3859 24.4759 10.9623 24.4948 11.0933 24.3638C11.2244 24.2328 13.07 22.0745 13.2384 21.8875C13.407 21.7003 14.3431 20.6818 14.4328 20.4883C14.5973 20.1328 14.3914 19.3884 14.5787 19.3697C14.7658 19.351 16.5218 19.093 16.78 18.9808C17.0381 18.8685 17.787 18.7001 18.4758 17.3049C18.9814 16.2807 19.7244 14.6301 20.0406 14.2486C20.3445 13.8818 21.2348 13.0927 22.0546 12.9617C22.8745 12.8307 23.788 12.8869 23.788 12.8869C23.788 12.8869 25.0105 16.0204 25.5586 16.6314C26.264 17.4179 29.306 19.0329 29.6056 19.5193C29.9051 20.0058 30.1446 20.8584 30.1258 21.2701C30.1072 21.6816 30.1781 23.0395 30.0697 23.3013C29.9612 23.5632 29.7927 24.0271 29.5867 24.1392C29.3809 24.2516 29.2725 24.3638 28.8793 24.4012C28.4861 24.4386 28.4447 24.5656 28.2989 24.7527C28.1531 24.9398 27.8348 25.3701 27.7225 25.4637C27.6103 25.5572 27.4791 25.7029 27.554 25.8339C27.6289 25.9648 27.7225 25.963 27.7225 25.963C27.7225 25.963 30.051 25.9648 30.1632 25.9648C30.2756 25.9648 30.3879 25.6881 30.519 25.4075C30.6501 25.1268 31.0206 25.1456 31.1328 24.9586C31.2451 24.7714 31.1742 22.4595 31.5448 21.0456C31.9153 19.6316 32.0088 19.4593 32.0088 19.2575C32.0088 19.0556 32.0276 18.6815 31.934 18.5879C31.8403 18.4944 30.931 17.6229 30.6688 17.2675C30.4067 16.912 30.0884 16.4109 30.051 16.1864C30.0134 15.9618 29.8263 14.7311 30.1632 12.9243C30.5002 11.1175 30.6314 10.6498 30.6501 10.1673C30.6688 9.68477 30.4254 8.3979 30.4254 8.3979C30.4254 8.3979 30.4816 8.13993 31.189 8.08379C31.8966 8.02766 34.7866 8.00895 37.4521 6.20214C40.1176 4.39533 41.3828 2.81306 42.0193 1.80675C42.6558 0.800429 42.7681 0.351351 42.7119 0.220484C42.6558 0.0895029 42.3749 -0.135036 42.169 0.108215C41.9632 0.351351 40.3421 2.56981 39.6346 3.23932C38.9271 3.90895 36.8382 5.32292 35.9997 5.56606C35.161 5.80931 34.6782 6.08987 32.4394 6.22085C30.2007 6.35183 29.5307 6.31441 29.5307 6.31441C29.5307 6.31441 28.4487 5.39766 26.0079 5.60348C23.5672 5.80931 22.7996 6.16472 22.1296 6.23956C21.4594 6.31441 19.7075 6.37054 16.9298 6.37054C14.1519 6.37054 11.7297 8.49899 10.1799 9.12754C9.84958 9.3053 8.82104 9.90532 8.61518 10.2796C8.4092 10.6537 8.44665 10.8447 8.52155 10.9531C8.59645 11.0613 8.92951 11.4354 10.2173 11.4542C11.5053 11.473 11.5053 12.4231 11.5053 12.4231C11.5988 13.5416 11.3824 14.6538 10.9435 15.7374C10.4981 16.8373 9.01937 18.0724 8.59645 18.4195C8.07225 18.8498 7.42085 18.0493 4.21639 18.4195C3.51613 18.5004 2.03624 19.1587 2.09002 18.6254C2.14619 18.068 2.52059 17.5255 3.37785 16.7063C4.23512 15.8871 4.4371 15.642 4.4371 15.642C4.34747 15.6794 4.83034 15.6477 5.6127 14.5667C6.39506 13.4855 6.63849 12.6289 6.61977 12.4792C6.60104 12.3295 6.58232 12.1425 6.46996 12.1238C6.31582 12.0981 6.09945 12.0115 5.44428 12.8494C4.6569 13.8563 4.21639 14.575 4.21639 15.569C4.21639 15.6251 3.79621 16.0241 3.05963 16.7437C2.2211 17.5629 1.95529 18.1799 1.90276 18.3634C1.75307 18.8872 2.01512 19.0556 2.01512 19.0556" fill="white"/>
</svg>
