<svg width="37" height="23" viewBox="0 0 37 23" fill="none" xmlns="http://www.w3.org/2000/svg">
<g filter="url(#filter0_d_0_1074)">
<path d="M6.60114 15H30.4605C31.6064 15 32.5353 14.0711 32.5353 12.9253V1.72172C32.5375 1.31877 32.3015 0.952558 31.9336 0.788093C31.5595 0.622072 31.1232 0.686712 30.8132 0.954071L24.5891 6.36912C24.4813 6.44992 24.3503 6.4936 24.2156 6.4936C24.0785 6.47874 23.9523 6.41192 23.8629 6.30688L18.8006 0.352399C18.5998 0.128157 18.3131 0 18.0122 0C17.7112 0 17.4245 0.128157 17.2238 0.352399L12.1614 6.28613C12.0649 6.39023 11.9299 6.45022 11.788 6.45211C11.6412 6.46725 11.4956 6.41363 11.3938 6.30688L6.28993 1.22379C5.99501 0.928027 5.54447 0.852938 5.16957 1.03706C4.77842 1.19153 4.52276 1.5709 4.52641 1.99144V12.9668C4.549 14.0964 5.47131 15.0002 6.60114 15Z" fill="black"/>
</g>
<defs>
<filter id="filter0_d_0_1074" x="0.526367" y="0" width="36.0088" height="23" filterUnits="userSpaceOnUse" color-interpolation-filters="sRGB">
<feFlood flood-opacity="0" result="BackgroundImageFix"/>
<feColorMatrix in="SourceAlpha" type="matrix" values="0 0 0 0 0 0 0 0 0 0 0 0 0 0 0 0 0 0 127 0" result="hardAlpha"/>
<feOffset dy="4"/>
<feGaussianBlur stdDeviation="2"/>
<feComposite in2="hardAlpha" operator="out"/>
<feColorMatrix type="matrix" values="0 0 0 0 0 0 0 0 0 0 0 0 0 0 0 0 0 0 0.25 0"/>
<feBlend mode="normal" in2="BackgroundImageFix" result="effect1_dropShadow_0_1074"/>
<feBlend mode="normal" in="SourceGraphic" in2="effect1_dropShadow_0_1074" result="shape"/>
</filter>
</defs>
</svg>
