<?xml version="1.0" encoding="UTF-8"?><svg id="Ebene_1" xmlns="http://www.w3.org/2000/svg" viewBox="0 0 23.78 9.8"><defs><style>.cls-1{fill:#fff;}</style></defs><path class="cls-1" d="M7,7.69c.07-.12,.04-.27-.07-.35-.77-.62-1.73-.96-2.72-.96-1.91,0-3.6,1.24-4.19,3.06-.04,.08-.04,.17,0,.25,.05,.07,.13,.11,.22,.11H6.01c.13,0,.24-.09,.28-.21v-.15c.15-.62,.39-1.2,.72-1.75Z"/><path class="cls-1" d="M19.69,6.37c-.83,0-1.65,.24-2.34,.7-.06,.03-.11,.09-.12,.17-.03,.07-.03,.14,0,.21,.4,.61,.69,1.28,.85,1.99v.15c.03,.12,.15,.21,.28,.21h5.18c.09,0,.17-.04,.22-.11,.04-.08,.04-.17,0-.25-.57-1.78-2.2-3-4.07-3.06Z"/><path class="cls-1" d="M16.14,9.8c.09,0,.17-.04,.23-.11,.04-.08,.04-.17,0-.25-.6-1.81-2.29-3.02-4.19-3.02s-3.59,1.22-4.19,3.02c-.02,.07,0,.15,.04,.21,.05,.06,.12,.1,.19,.1l7.92,.06Z"/><circle class="cls-1" cx="4.22" cy="2.71" r="2.7"/><circle class="cls-1" cx="19.69" cy="2.71" r="2.7"/><path class="cls-1" d="M13.73,4.93c.98-.66,1.41-1.89,1.06-3.02-.35-1.13-1.39-1.9-2.58-1.9s-2.23,.77-2.58,1.9c-.35,1.13,.08,2.36,1.06,3.02,.91,.62,2.11,.62,3.03,0Z"/></svg>